<?xml version="1.0" encoding="UTF-8"?>
<svg xmlns="http://www.w3.org/2000/svg" xmlns:xlink="http://www.w3.org/1999/xlink" width="248px" height="248px" viewBox="0 0 248 248" version="1.1">
<g id="surface1">
<path style=" stroke:none;fill-rule:nonzero;fill:rgb(74.117649%,95.686275%,89.019608%);fill-opacity:1;" d="M 205.074219 208.785156 C 193.902344 205.691406 182.828125 210.457031 180.339844 219.433594 C 177.855469 228.40625 184.898438 238.191406 196.074219 241.289062 C 207.25 244.382812 218.324219 239.617188 220.808594 230.640625 C 223.296875 221.664062 216.25 211.882812 205.074219 208.785156 Z M 205.074219 208.785156 "/>
<path style=" stroke:none;fill-rule:nonzero;fill:rgb(74.117649%,95.686275%,89.019608%);fill-opacity:1;" d="M 224.460938 179.503906 C 219.664062 171.199219 203.882812 171.332031 189.210938 179.800781 C 174.539062 188.269531 166.535156 201.871094 171.332031 210.179688 C 176.128906 218.488281 191.910156 218.355469 206.582031 209.882812 C 221.25 201.414062 229.257812 187.8125 224.460938 179.503906 Z M 224.460938 179.503906 "/>
<path style=" stroke:none;fill-rule:nonzero;fill:rgb(74.117649%,95.686275%,89.019608%);fill-opacity:1;" d="M 72.304688 219.40625 C 69.820312 210.433594 58.746094 205.664062 47.570312 208.761719 C 36.394531 211.855469 29.351562 221.640625 31.835938 230.617188 C 34.324219 239.589844 45.398438 244.359375 56.574219 241.261719 C 67.75 238.167969 74.792969 228.382812 72.304688 219.40625 Z M 72.304688 219.40625 "/>
<path style=" stroke:none;fill-rule:nonzero;fill:rgb(74.117649%,95.686275%,89.019608%);fill-opacity:1;" d="M 63.207031 179.804688 C 48.535156 171.335938 32.753906 171.203125 27.957031 179.511719 C 23.160156 187.816406 31.167969 201.417969 45.835938 209.890625 C 60.507812 218.359375 76.289062 218.492188 81.085938 210.183594 C 85.882812 201.878906 77.878906 188.277344 63.207031 179.804688 Z M 63.207031 179.804688 "/>
<path style=" stroke:none;fill-rule:nonzero;fill:rgb(83.137256%,61.176473%,55.29412%);fill-opacity:1;" d="M 184.953125 243.007812 L 184.953125 227.128906 C 184.953125 194.6875 158.652344 168.390625 126.214844 168.390625 C 93.773438 168.390625 67.476562 194.6875 67.476562 227.128906 L 67.476562 243.007812 Z M 184.953125 243.007812 "/>
<path style=" stroke:none;fill-rule:nonzero;fill:rgb(74.117649%,95.686275%,89.019608%);fill-opacity:1;" d="M 165.421875 243.007812 L 165.421875 228.003906 C 165.421875 206.347656 147.867188 188.796875 126.214844 188.796875 C 104.558594 188.796875 87.003906 206.347656 87.003906 228.003906 L 87.003906 243.007812 Z M 165.421875 243.007812 "/>
<path style=" stroke:none;fill-rule:nonzero;fill:rgb(69.411767%,71.764708%,89.019608%);fill-opacity:1;" d="M 130.328125 189.011719 C 141.667969 194.113281 149.644531 206.21875 149.644531 220.34375 L 149.644531 223.742188 C 149.644531 229.035156 145.355469 233.324219 140.066406 233.324219 L 87.003906 233.324219 L 87.003906 243.007812 L 165.421875 243.007812 L 165.421875 228.003906 C 165.421875 207.738281 150.046875 191.066406 130.328125 189.011719 Z M 130.328125 189.011719 "/>
<path style=" stroke:none;fill-rule:nonzero;fill:rgb(83.137256%,61.176473%,55.29412%);fill-opacity:1;" d="M 213.957031 125.574219 C 203.289062 124.261719 193.578125 131.847656 192.269531 142.515625 C 190.957031 153.183594 198.542969 162.890625 209.210938 164.203125 C 219.878906 165.515625 229.585938 157.929688 230.898438 147.261719 C 232.210938 136.59375 224.625 126.882812 213.957031 125.574219 Z M 213.957031 125.574219 "/>
<path style=" stroke:none;fill-rule:nonzero;fill:rgb(83.137256%,61.176473%,55.29412%);fill-opacity:1;" d="M 43.203125 125.683594 C 32.546875 124.359375 22.835938 131.929688 21.511719 142.585938 C 20.191406 153.242188 27.761719 162.953125 38.417969 164.273438 C 49.074219 165.59375 58.785156 158.027344 60.105469 147.371094 C 61.425781 136.714844 53.859375 127.003906 43.203125 125.683594 Z M 43.203125 125.683594 "/>
<path style=" stroke:none;fill-rule:nonzero;fill:rgb(83.137256%,61.176473%,55.29412%);fill-opacity:1;" d="M 142.789062 193.089844 L 109.636719 193.089844 C 68.445312 193.089844 35.046875 159.695312 35.046875 118.5 C 35.046875 77.304688 68.441406 43.910156 109.636719 43.910156 L 142.789062 43.910156 C 183.984375 43.910156 217.378906 77.304688 217.378906 118.5 C 217.378906 159.695312 183.984375 193.089844 142.789062 193.089844 Z M 142.789062 193.089844 "/>
<path style=" stroke:none;fill-rule:nonzero;fill:rgb(51.764709%,91.764706%,76.862746%);fill-opacity:1;" d="M 139.769531 31.839844 L 112.65625 31.839844 C 67.050781 31.839844 30.078125 68.8125 30.078125 114.417969 L 30.078125 122.65625 C 30.660156 137.113281 38.28125 144.699219 44.402344 149.753906 L 44.847656 164.699219 C 42.863281 190.414062 57.878906 202.167969 69.445312 193.507812 C 69.445312 204.558594 78.125 213.519531 88.828125 213.519531 C 97.3125 213.519531 104.519531 207.890625 107.148438 200.050781 C 108.636719 210.929688 116.605469 219.238281 126.214844 219.238281 C 135.824219 219.238281 143.789062 210.929688 145.28125 200.050781 C 147.90625 207.890625 155.113281 213.519531 163.597656 213.519531 C 174.304688 213.519531 182.980469 204.558594 182.980469 193.507812 C 194.992188 199.230469 206.089844 188.128906 207.578125 164.699219 L 208.691406 149.441406 C 217.070312 144.25 221.4375 136.316406 222.351562 122.65625 L 222.351562 114.417969 C 222.351562 68.8125 185.378906 31.839844 139.769531 31.839844 Z M 189.402344 148.136719 C 189.402344 159.894531 179.871094 169.429688 168.113281 169.429688 C 156.351562 169.429688 146.820312 159.894531 146.820312 148.136719 C 146.820312 136.769531 137.605469 127.554688 126.238281 127.554688 C 114.867188 127.554688 105.652344 136.769531 105.652344 148.136719 L 105.65625 148.136719 C 105.65625 159.894531 96.121094 169.429688 84.363281 169.429688 C 72.601562 169.429688 63.070312 159.894531 63.070312 148.136719 C 63.070312 148.136719 60.976562 126.917969 73.554688 114.359375 L 103.6875 94.097656 L 135.929688 111.507812 C 139.371094 113.371094 143.605469 111.175781 144.070312 107.289062 L 145.578125 94.722656 C 145.746094 93.347656 147.300781 92.625 148.457031 93.382812 L 181.730469 115.191406 C 190.851562 127.695312 189.402344 148.136719 189.402344 148.136719 Z M 189.402344 148.136719 "/>
<path style=" stroke:none;fill-rule:nonzero;fill:rgb(44.313726%,68.627453%,76.862746%);fill-opacity:1;" d="M 139.773438 31.839844 L 124.304688 31.839844 C 163.480469 31.839844 195.238281 63.597656 195.238281 102.773438 L 195.238281 109.847656 C 194.453125 121.582031 194.859375 125.902344 187.660156 130.359375 L 189.175781 146.65625 C 188.714844 160.757812 180.933594 166.144531 173.148438 169.4375 C 173.148438 178.929688 165.695312 186.628906 156.5 186.628906 C 154.273438 186.628906 152.148438 186.175781 150.207031 185.359375 C 144.800781 183.078125 138.527344 184.054688 134.058594 187.859375 C 131.335938 190.175781 127.996094 191.539062 124.386719 191.539062 C 120.777344 191.539062 117.4375 190.175781 114.714844 187.859375 C 110.246094 184.054688 103.972656 183.078125 98.5625 185.359375 C 96.625 186.175781 94.5 186.628906 92.273438 186.628906 C 86.398438 186.628906 81.234375 183.488281 78.269531 178.742188 C 75.894531 174.941406 71.894531 172.386719 67.457031 171.765625 C 63.03125 171.144531 50.113281 179.617188 44.789062 162.679688 L 44.847656 164.699219 C 42.863281 190.414062 57.882812 202.167969 69.445312 193.507812 C 69.445312 204.558594 78.125 213.519531 88.832031 213.519531 C 97.316406 213.519531 104.519531 207.890625 107.148438 200.050781 C 108.636719 210.929688 116.605469 219.238281 126.214844 219.238281 C 135.824219 219.238281 143.792969 210.929688 145.28125 200.050781 C 147.90625 207.890625 155.113281 213.519531 163.597656 213.519531 C 174.304688 213.519531 182.984375 204.558594 182.984375 193.507812 C 194.992188 199.230469 206.09375 188.128906 207.578125 164.699219 L 208.691406 149.441406 C 217.070312 144.25 221.4375 136.316406 222.351562 122.65625 L 222.351562 114.421875 C 222.351562 68.8125 185.378906 31.839844 139.773438 31.839844 Z M 139.773438 31.839844 "/>
<path style=" stroke:none;fill-rule:nonzero;fill:rgb(74.117649%,95.686275%,89.019608%);fill-opacity:1;" d="M 202.304688 92.636719 C 199.152344 96.507812 171.03125 94.5 154.402344 80.953125 C 137.777344 67.410156 134.703125 52.660156 142.097656 43.582031 C 149.492188 34.507812 164.558594 34.539062 181.183594 48.082031 C 197.808594 61.628906 205.460938 88.761719 202.304688 92.636719 Z M 202.304688 92.636719 "/>
<path style=" stroke:none;fill-rule:nonzero;fill:rgb(26.666668%,4.313726%,16.078432%);fill-opacity:1;" d="M 218.292969 168.460938 C 228.476562 165.53125 235.949219 156.132812 235.949219 145.019531 C 235.949219 137.800781 232.792969 131.308594 227.792969 126.839844 C 227.941406 125.609375 228.070312 124.355469 228.15625 123.042969 C 228.167969 122.914062 228.171875 122.785156 228.171875 122.65625 L 228.171875 114.417969 C 228.171875 65.675781 188.515625 26.019531 139.769531 26.019531 L 112.65625 26.019531 C 63.914062 26.019531 24.257812 65.675781 24.257812 114.417969 L 24.257812 122.65625 C 24.257812 122.734375 24.257812 122.8125 24.261719 122.890625 C 24.316406 124.269531 24.429688 125.597656 24.589844 126.875 C 19.617188 131.34375 16.480469 137.820312 16.480469 145.019531 C 16.480469 156.132812 23.953125 165.53125 34.136719 168.460938 C 29.113281 169.800781 25.246094 172.574219 22.921875 176.597656 C 19.507812 182.511719 20.097656 189.964844 24.585938 197.589844 C 26.984375 201.664062 30.390625 205.570312 34.519531 209.046875 C 27.382812 214.984375 23.824219 223.785156 26.132812 232.136719 C 27.816406 238.210938 32.222656 243.054688 38.542969 245.78125 C 41.96875 247.253906 45.746094 248 49.621094 248 C 52.402344 248 55.230469 247.617188 58.019531 246.847656 C 59.738281 246.371094 61.386719 245.753906 62.960938 245.019531 C 63.734375 246.75 65.460938 247.953125 67.476562 247.953125 C 70.207031 247.953125 72.421875 245.738281 72.421875 243.007812 L 72.421875 227.128906 C 72.421875 222.726562 72.957031 218.449219 73.960938 214.351562 C 77.15625 216.75 80.921875 218.398438 85.007812 219.039062 C 84.378906 221.929688 84.039062 224.925781 84.039062 228.003906 L 84.039062 244.839844 C 84.039062 246.480469 85.367188 247.808594 87.003906 247.808594 C 88.644531 247.808594 89.972656 246.480469 89.972656 244.839844 L 89.972656 228.003906 C 89.972656 224.980469 90.355469 222.046875 91.0625 219.238281 C 96.53125 218.742188 101.59375 216.4375 105.570312 212.820312 C 110.125 220.304688 117.699219 225.058594 126.214844 225.058594 C 134.730469 225.058594 142.304688 220.304688 146.859375 212.820312 C 150.835938 216.4375 155.898438 218.742188 161.367188 219.238281 C 162.070312 222.046875 162.453125 224.980469 162.453125 228.003906 L 162.453125 244.839844 C 162.453125 246.480469 163.785156 247.808594 165.421875 247.808594 C 167.0625 247.808594 168.390625 246.480469 168.390625 244.839844 L 168.390625 228.003906 C 168.390625 224.925781 168.054688 221.929688 167.425781 219.039062 C 171.503906 218.398438 175.265625 216.753906 178.460938 214.355469 C 179.460938 218.453125 180.003906 222.726562 180.003906 227.128906 L 180.003906 243.007812 C 180.003906 245.738281 182.21875 247.953125 184.953125 247.953125 C 186.964844 247.953125 188.691406 246.75 189.464844 245.027344 C 191.039062 245.757812 192.691406 246.371094 194.40625 246.847656 C 197.195312 247.617188 200.027344 248 202.804688 248 C 206.679688 248 210.457031 247.253906 213.882812 245.78125 C 220.207031 243.054688 224.613281 238.210938 226.292969 232.136719 C 227.972656 226.0625 226.683594 219.640625 222.660156 214.054688 C 221.320312 212.199219 219.722656 210.519531 217.921875 209.035156 C 222.042969 205.5625 225.445312 201.660156 227.84375 197.589844 C 232.328125 189.964844 232.921875 182.511719 229.507812 176.597656 C 227.183594 172.574219 223.3125 169.800781 218.292969 168.460938 Z M 224.792969 139.121094 C 225.601562 140.925781 226.054688 142.917969 226.054688 145.019531 C 226.054688 152.25 220.734375 158.261719 213.804688 159.347656 L 214.289062 152.671875 C 219.058594 149.148438 222.503906 144.726562 224.792969 139.121094 Z M 182.902344 90.210938 C 179.710938 89.589844 175.019531 88.449219 169.996094 86.460938 L 171.726562 65.734375 C 177.3125 70.792969 182.421875 76.503906 187.089844 82.917969 C 187.667969 83.714844 188.574219 84.136719 189.492188 84.136719 C 190.097656 84.136719 190.707031 83.953125 191.234375 83.570312 C 192.558594 82.605469 192.851562 80.75 191.886719 79.425781 C 184.890625 69.808594 176.960938 61.679688 167.960938 54.921875 L 183.09375 53.867188 C 189.792969 60.773438 193.972656 69.246094 196.011719 74.121094 C 199.628906 82.78125 200.351562 89.019531 199.953125 90.71875 C 198.371094 91.449219 192.113281 92.007812 182.902344 90.210938 Z M 142.089844 59.753906 C 140.710938 55.082031 141.082031 50.816406 143.140625 47.28125 C 145.433594 48.296875 147.667969 49.375 149.847656 50.519531 L 147.265625 69.519531 C 144.796875 66.269531 143.042969 62.984375 142.089844 59.753906 Z M 156.140625 40.230469 C 156.726562 40.230469 157.324219 40.257812 157.929688 40.308594 C 163.726562 40.792969 170.164062 43.566406 176.695312 48.363281 L 160.078125 49.519531 C 156.058594 47.015625 151.84375 44.742188 147.421875 42.691406 C 149.84375 41.066406 152.789062 40.230469 156.140625 40.230469 Z M 155.414062 53.640625 C 159.167969 55.894531 162.753906 58.355469 166.164062 61.035156 L 164.257812 83.847656 C 161.511719 82.414062 158.789062 80.699219 156.277344 78.652344 C 154.925781 77.550781 153.65625 76.429688 152.472656 75.296875 Z M 26.371094 145.019531 C 26.371094 142.695312 26.925781 140.496094 27.902344 138.546875 C 30.703125 144.5625 34.726562 149.007812 38.660156 152.503906 L 38.867188 159.382812 C 31.816406 158.398438 26.371094 152.335938 26.371094 145.019531 Z M 33 182.417969 C 34.023438 180.652344 36.488281 179.539062 39.878906 179.257812 C 41.890625 189.402344 46.707031 194.773438 51.054688 197.605469 C 55.128906 200.257812 59.957031 201.367188 64.671875 200.882812 C 65.117188 202.410156 65.699219 203.875 66.398438 205.269531 C 65.785156 206.9375 65.246094 208.636719 64.773438 210.363281 C 59.730469 209.84375 54.027344 207.894531 48.753906 204.847656 C 36.433594 197.734375 30.273438 187.140625 33 182.417969 Z M 54.917969 235.625 C 50.785156 236.769531 46.605469 236.578125 43.148438 235.089844 C 40.132812 233.789062 38.074219 231.636719 37.351562 229.03125 C 36.054688 224.339844 39.355469 219.015625 44.898438 216.011719 C 50.785156 219.125 56.9375 221.136719 62.746094 221.851562 C 62.601562 223.59375 62.53125 225.351562 62.53125 227.128906 L 62.53125 231.554688 C 60.472656 233.402344 57.859375 234.8125 54.917969 235.625 Z M 163.597656 207.699219 C 157.847656 207.699219 152.703125 203.882812 150.796875 198.203125 C 149.9375 195.640625 147.429688 194 144.734375 194.257812 C 142.042969 194.511719 139.878906 196.585938 139.515625 199.261719 C 138.410156 207.332031 132.691406 213.417969 126.214844 213.417969 C 119.738281 213.417969 114.019531 207.332031 112.914062 199.261719 C 112.546875 196.585938 110.386719 194.511719 107.695312 194.257812 C 107.511719 194.242188 107.328125 194.234375 107.144531 194.234375 C 104.667969 194.234375 102.429688 195.8125 101.628906 198.203125 C 99.726562 203.882812 94.582031 207.699219 88.832031 207.699219 C 81.351562 207.699219 75.265625 201.332031 75.265625 193.507812 C 75.265625 191.480469 74.210938 189.601562 72.484375 188.542969 C 70.753906 187.484375 68.601562 187.402344 66.796875 188.324219 C 64.558594 189.46875 60.757812 190.03125 57.410156 187.851562 C 52.410156 184.59375 50.011719 176.488281 50.660156 165.03125 C 50.667969 164.863281 50.671875 164.695312 50.667969 164.527344 L 50.21875 149.582031 C 50.167969 147.90625 49.398438 146.335938 48.109375 145.269531 C 42.058594 140.269531 36.394531 134.058594 35.898438 122.535156 L 35.898438 114.417969 C 35.898438 72.09375 70.332031 37.660156 112.65625 37.660156 L 139.769531 37.660156 C 141.226562 37.660156 142.671875 37.703125 144.105469 37.78125 C 142.527344 38.84375 141.097656 40.128906 139.851562 41.644531 C 139.839844 41.660156 139.824219 41.671875 139.8125 41.6875 C 139.808594 41.695312 139.800781 41.703125 139.796875 41.707031 C 135.429688 47.066406 134.222656 54.070312 136.394531 61.433594 C 138.082031 67.148438 141.75 72.90625 147.113281 78.34375 C 147.195312 78.4375 147.285156 78.527344 147.382812 78.609375 C 148.957031 80.1875 150.671875 81.742188 152.527344 83.253906 C 162.847656 91.660156 175.972656 95.003906 182.878906 96.246094 C 184.449219 96.527344 189.402344 97.34375 194.273438 97.34375 C 198.574219 97.34375 202.8125 96.707031 204.605469 94.507812 C 208.425781 89.820312 203.035156 75.667969 201.917969 72.878906 C 201.003906 70.609375 199.6875 67.648438 197.925781 64.398438 C 209.511719 77.84375 216.53125 95.320312 216.53125 114.417969 L 216.53125 122.457031 C 215.742188 133.796875 212.578125 140.191406 205.628906 144.492188 C 204.042969 145.472656 203.019531 147.15625 202.886719 149.015625 L 201.773438 164.277344 C 201.769531 164.335938 201.765625 164.398438 201.765625 164.457031 C 201.304688 175.4375 198.472656 183.308594 193.789062 186.621094 C 190.128906 189.210938 186.207031 188.410156 184.6875 187.945312 C 182.921875 187.402344 181.007812 187.730469 179.523438 188.828125 C 178.039062 189.925781 177.160156 191.660156 177.160156 193.507812 C 177.160156 201.332031 171.078125 207.699219 163.597656 207.699219 Z M 215.074219 229.03125 C 214.351562 231.636719 212.292969 233.789062 209.277344 235.089844 C 205.820312 236.578125 201.640625 236.769531 197.511719 235.625 C 194.566406 234.8125 191.953125 233.402344 189.898438 231.558594 L 189.898438 227.128906 C 189.898438 225.351562 189.820312 223.59375 189.679688 221.851562 C 195.492188 221.136719 201.652344 219.121094 207.542969 216.003906 C 209.851562 217.242188 211.800781 218.894531 213.214844 220.859375 C 215.132812 223.523438 215.796875 226.425781 215.074219 229.03125 Z M 203.675781 204.847656 C 198.398438 207.894531 192.695312 209.84375 187.652344 210.363281 C 187.179688 208.636719 186.636719 206.941406 186.027344 205.273438 C 186.847656 203.640625 187.507812 201.902344 187.972656 200.089844 L 187.988281 200.089844 C 192.460938 200.089844 196.8125 198.742188 200.511719 196.121094 C 205.632812 192.5 209.253906 186.832031 211.34375 179.195312 C 215.363281 179.289062 218.289062 180.449219 219.425781 182.417969 C 222.152344 187.140625 215.996094 197.734375 203.675781 204.847656 Z M 203.675781 204.847656 "/>
<path style=" stroke:none;fill-rule:nonzero;fill:rgb(26.666668%,4.313726%,16.078432%);fill-opacity:1;" d="M 192.371094 148.238281 C 192.488281 146.394531 193.53125 126.328125 184.125 113.441406 C 183.914062 113.152344 183.65625 112.90625 183.355469 112.707031 L 150.085938 90.902344 C 148.675781 89.980469 146.921875 89.851562 145.394531 90.5625 C 143.867188 91.273438 142.835938 92.699219 142.632812 94.371094 L 141.125 106.9375 C 141.023438 107.796875 140.523438 108.519531 139.75 108.917969 C 138.980469 109.320312 138.101562 109.3125 137.339844 108.898438 L 105.097656 91.484375 C 104.128906 90.960938 102.949219 91.019531 102.03125 91.632812 L 71.898438 111.898438 C 71.742188 112.003906 71.59375 112.125 71.457031 112.257812 C 58.46875 125.230469 59.914062 146.117188 60.101562 148.277344 C 60.179688 161.589844 71.03125 172.398438 84.363281 172.398438 C 97.742188 172.398438 108.625 161.515625 108.625 148.136719 C 108.625 148.105469 108.625 148.078125 108.621094 148.046875 C 108.667969 138.375 116.554688 130.519531 126.238281 130.519531 C 135.921875 130.519531 143.800781 138.371094 143.851562 148.042969 C 143.851562 148.074219 143.851562 148.105469 143.851562 148.136719 C 143.851562 161.511719 154.734375 172.398438 168.113281 172.398438 C 181.453125 172.398438 192.316406 161.570312 192.371094 148.238281 Z M 168.113281 166.460938 C 158.039062 166.460938 149.835938 158.292969 149.785156 148.230469 C 149.789062 148.199219 149.789062 148.167969 149.789062 148.136719 C 149.789062 135.148438 139.222656 124.585938 126.238281 124.585938 C 113.25 124.585938 102.6875 135.148438 102.6875 148.136719 C 102.6875 148.164062 102.6875 148.195312 102.6875 148.222656 C 102.640625 158.289062 94.4375 166.460938 84.363281 166.460938 C 74.257812 166.460938 66.039062 158.242188 66.039062 148.136719 C 66.039062 148.042969 66.03125 147.941406 66.023438 147.847656 C 66.003906 147.652344 64.265625 128.078125 75.453125 116.660156 L 103.855469 97.558594 L 134.519531 114.121094 C 137 115.460938 139.976562 115.488281 142.480469 114.191406 C 144.988281 112.890625 146.683594 110.445312 147.019531 107.644531 L 148.316406 96.839844 L 179.636719 117.367188 C 187.664062 128.875 186.457031 147.738281 186.445312 147.925781 C 186.4375 147.996094 186.4375 148.066406 186.4375 148.136719 C 186.4375 158.242188 178.214844 166.460938 168.113281 166.460938 Z M 168.113281 166.460938 "/>
<path style=" stroke:none;fill-rule:nonzero;fill:rgb(26.666668%,4.313726%,16.078432%);fill-opacity:1;" d="M 130.808594 180.953125 C 129.171875 180.953125 127.839844 182.28125 127.839844 183.917969 L 127.839844 188.96875 C 127.839844 190.609375 129.171875 191.9375 130.808594 191.9375 C 132.449219 191.9375 133.777344 190.609375 133.777344 188.96875 L 133.777344 183.917969 C 133.777344 182.28125 132.449219 180.953125 130.808594 180.953125 Z M 130.808594 180.953125 "/>
<path style=" stroke:none;fill-rule:nonzero;fill:rgb(26.666668%,4.313726%,16.078432%);fill-opacity:1;" d="M 145.65625 173.597656 C 144.015625 173.597656 142.6875 174.925781 142.6875 176.566406 L 142.6875 181.617188 C 142.6875 183.257812 144.015625 184.585938 145.65625 184.585938 C 147.292969 184.585938 148.621094 183.257812 148.621094 181.617188 L 148.621094 176.566406 C 148.621094 174.925781 147.292969 173.597656 145.65625 173.597656 Z M 145.65625 173.597656 "/>
<path style=" stroke:none;fill-rule:nonzero;fill:rgb(26.666668%,4.313726%,16.078432%);fill-opacity:1;" d="M 162.96875 185.417969 C 161.328125 185.417969 160 186.746094 160 188.386719 L 160 193.4375 C 160 195.078125 161.328125 196.40625 162.96875 196.40625 C 164.609375 196.40625 165.9375 195.078125 165.9375 193.4375 L 165.9375 188.386719 C 165.9375 186.75 164.609375 185.417969 162.96875 185.417969 Z M 162.96875 185.417969 "/>
<path style=" stroke:none;fill-rule:nonzero;fill:rgb(26.666668%,4.313726%,16.078432%);fill-opacity:1;" d="M 81.714844 140.96875 C 77.113281 140.96875 73.386719 144.699219 73.386719 149.296875 C 73.386719 153.894531 77.113281 157.625 81.714844 157.625 C 86.3125 157.625 90.039062 153.894531 90.039062 149.296875 C 90.039062 144.699219 86.3125 140.96875 81.714844 140.96875 Z M 81.714844 140.96875 "/>
<path style=" stroke:none;fill-rule:nonzero;fill:rgb(26.666668%,4.313726%,16.078432%);fill-opacity:1;" d="M 170.714844 140.96875 C 166.117188 140.96875 162.386719 144.699219 162.386719 149.296875 C 162.386719 153.894531 166.117188 157.625 170.714844 157.625 C 175.3125 157.625 179.039062 153.894531 179.039062 149.296875 C 179.039062 144.699219 175.3125 140.96875 170.714844 140.96875 Z M 170.714844 140.96875 "/>
<path style=" stroke:none;fill-rule:nonzero;fill:rgb(26.666668%,4.313726%,16.078432%);fill-opacity:1;" d="M 89.808594 122.007812 C 89.433594 121.816406 86.027344 120.140625 81.714844 120.140625 C 77.398438 120.140625 73.992188 121.816406 73.617188 122.007812 C 72.164062 122.75 71.589844 124.527344 72.324219 125.984375 C 73.0625 127.445312 74.84375 128.03125 76.304688 127.300781 C 76.328125 127.289062 78.792969 126.078125 81.714844 126.078125 C 84.632812 126.078125 87.097656 127.289062 87.109375 127.296875 C 87.542969 127.515625 88.003906 127.621094 88.457031 127.621094 C 89.535156 127.621094 90.578125 127.027344 91.101562 126 C 91.847656 124.542969 91.269531 122.753906 89.808594 122.007812 Z M 89.808594 122.007812 "/>
<path style=" stroke:none;fill-rule:nonzero;fill:rgb(26.666668%,4.313726%,16.078432%);fill-opacity:1;" d="M 178.808594 122.007812 C 178.433594 121.816406 175.03125 120.140625 170.714844 120.140625 C 166.398438 120.140625 162.992188 121.816406 162.621094 122.007812 C 161.164062 122.75 160.589844 124.527344 161.324219 125.984375 C 162.0625 127.445312 163.84375 128.03125 165.304688 127.300781 C 165.328125 127.289062 167.796875 126.078125 170.714844 126.078125 C 173.632812 126.078125 176.097656 127.289062 176.109375 127.296875 C 176.542969 127.515625 177.003906 127.621094 177.457031 127.621094 C 178.539062 127.621094 179.578125 127.027344 180.101562 126 C 180.847656 124.542969 180.269531 122.753906 178.808594 122.007812 Z M 178.808594 122.007812 "/>
<path style=" stroke:none;fill-rule:nonzero;fill:rgb(26.666668%,4.313726%,16.078432%);fill-opacity:1;" d="M 134.539062 146.328125 C 132.902344 146.328125 131.574219 147.660156 131.574219 149.296875 C 131.574219 152.253906 129.167969 154.65625 126.214844 154.65625 C 123.257812 154.65625 120.855469 152.253906 120.855469 149.296875 C 120.855469 147.660156 119.527344 146.328125 117.886719 146.328125 C 116.25 146.328125 114.917969 147.660156 114.917969 149.296875 C 114.917969 155.523438 119.988281 160.59375 126.214844 160.59375 C 132.441406 160.59375 137.507812 155.523438 137.507812 149.296875 C 137.507812 147.660156 136.179688 146.328125 134.539062 146.328125 Z M 134.539062 146.328125 "/>
<path style=" stroke:none;fill-rule:nonzero;fill:rgb(100%,100%,100%);fill-opacity:1;" d="M 53.472656 117.53125 C 53.34375 117.53125 53.214844 117.523438 53.082031 117.515625 C 50.359375 117.300781 48.324219 114.917969 48.539062 112.195312 C 48.820312 108.582031 49.371094 105.09375 50.175781 101.828125 C 50.824219 99.171875 53.503906 97.550781 56.15625 98.203125 C 58.8125 98.855469 60.433594 101.53125 59.78125 104.1875 C 59.105469 106.933594 58.644531 109.890625 58.402344 112.972656 C 58.195312 115.5625 56.03125 117.53125 53.472656 117.53125 Z M 53.472656 117.53125 "/>
<path style=" stroke:none;fill-rule:nonzero;fill:rgb(100%,100%,100%);fill-opacity:1;" d="M 61.359375 93.640625 C 60.332031 93.640625 59.296875 93.324219 58.410156 92.664062 C 56.21875 91.03125 55.761719 87.933594 57.394531 85.742188 C 58.085938 84.816406 58.765625 84.027344 59.472656 83.328125 C 61.421875 81.417969 64.554688 81.445312 66.46875 83.394531 C 68.382812 85.34375 68.355469 88.476562 66.40625 90.390625 C 66.0625 90.722656 65.710938 91.136719 65.332031 91.648438 C 64.359375 92.953125 62.867188 93.640625 61.359375 93.640625 Z M 61.359375 93.640625 "/>
<path style=" stroke:none;fill-rule:nonzero;fill:rgb(74.117649%,95.686275%,89.019608%);fill-opacity:1;" d="M 36.691406 1.25 L 40.894531 13.066406 C 41.074219 13.570312 41.429688 13.972656 41.878906 14.175781 L 52.375 18.902344 C 53.859375 19.570312 53.859375 21.933594 52.375 22.601562 L 41.878906 27.332031 C 41.429688 27.535156 41.074219 27.9375 40.894531 28.441406 L 36.691406 40.257812 C 36.097656 41.925781 34 41.925781 33.40625 40.257812 L 29.203125 28.441406 C 29.023438 27.9375 28.667969 27.535156 28.21875 27.332031 L 17.722656 22.601562 C 16.238281 21.933594 16.238281 19.574219 17.722656 18.902344 L 28.21875 14.175781 C 28.667969 13.972656 29.023438 13.570312 29.203125 13.066406 L 33.40625 1.25 C 34 -0.417969 36.097656 -0.417969 36.691406 1.25 Z M 36.691406 1.25 "/>
<path style=" stroke:none;fill-rule:nonzero;fill:rgb(51.764709%,91.764706%,76.862746%);fill-opacity:1;" d="M 190.921875 0.132812 C 185.921875 -0.675781 181.207031 2.71875 180.398438 7.722656 C 179.585938 12.722656 182.984375 17.433594 187.984375 18.246094 C 192.984375 19.054688 197.699219 15.660156 198.507812 10.65625 C 199.320312 5.65625 195.921875 0.945312 190.921875 0.132812 Z M 190.921875 0.132812 "/>
<path style=" stroke:none;fill-rule:nonzero;fill:rgb(51.764709%,91.764706%,76.862746%);fill-opacity:1;" d="M 13.277344 58.492188 C 13.277344 56.347656 11.535156 54.605469 9.390625 54.605469 C 7.246094 54.605469 5.503906 56.347656 5.503906 58.492188 C 5.503906 60.636719 7.246094 62.378906 9.390625 62.378906 C 11.535156 62.378906 13.277344 60.636719 13.277344 58.492188 Z M 13.277344 58.492188 "/>
<path style=" stroke:none;fill-rule:nonzero;fill:rgb(74.117649%,95.686275%,89.019608%);fill-opacity:1;" d="M 230.035156 22.132812 L 233.152344 30.894531 C 233.285156 31.269531 233.550781 31.566406 233.882812 31.71875 L 241.667969 35.226562 C 242.769531 35.722656 242.769531 37.476562 241.667969 37.96875 L 233.882812 41.476562 C 233.550781 41.628906 233.285156 41.925781 233.152344 42.300781 L 230.035156 51.066406 C 229.59375 52.304688 228.039062 52.304688 227.597656 51.066406 L 224.480469 42.300781 C 224.347656 41.925781 224.082031 41.628906 223.75 41.476562 L 215.964844 37.96875 C 214.863281 37.476562 214.863281 35.722656 215.964844 35.226562 L 223.75 31.71875 C 224.082031 31.566406 224.347656 31.269531 224.480469 30.894531 L 227.597656 22.132812 C 228.039062 20.894531 229.59375 20.894531 230.035156 22.132812 Z M 230.035156 22.132812 "/>
</g>
</svg>
